<?xml version="1.0" encoding="UTF-8" standalone="no"?>
<svg
   xmlns:dc="http://purl.org/dc/elements/1.1/"
   xmlns:cc="http://creativecommons.org/ns#"
   xmlns:rdf="http://www.w3.org/1999/02/22-rdf-syntax-ns#"
   xmlns:svg="http://www.w3.org/2000/svg"
   xmlns="http://www.w3.org/2000/svg"
   width="203.76268mm"
   height="133.83791mm"
   viewBox="0 0 203.76267 133.83793"
   version="1.1"
   id="svg8">
  <defs
     id="defs2" />
  <metadata
     id="metadata5">
    <rdf:RDF>
      <cc:Work
         rdf:about="">
        <dc:format>image/svg+xml</dc:format>
        <dc:type
           rdf:resource="http://purl.org/dc/dcmitype/StillImage" />
        <dc:title></dc:title>
      </cc:Work>
    </rdf:RDF>
  </metadata>
  <g
     id="layer1"
     transform="matrix(1.1714286,0,0,1.1714286,15.493986,-8.9819739)">
    <path
       style="fill:#e6e6e6;fill-opacity:1;stroke-width:0.32850924"
       d="m 29.857363,121.82045 c -2.017016,-0.14354 -3.515891,-3.52988 -3.762802,-5.60963 1.146718,-2.69093 -2.024087,-4.66962 -1.472909,-7.5496 -0.66101,-5.40587 -0.291183,-10.992368 -0.85195,-16.344972 -1.439564,-1.541828 -4.248171,-2.97353 -5.117763,-5.790559 -0.186946,-2.631599 -3.197303,-4.637839 -2.46046,-6.925468 -0.242969,-2.400462 1.06746,-4.804823 2.268654,-7.211453 0.179875,-2.027826 -0.180865,-5.264911 2.249276,-5.677501 1.087207,-4.224443 1.854196,4.615662 2.363157,-0.992132 1.224789,1.279467 3.742359,0.34855 4.831672,1.732076 1.670206,1.245032 3.432095,3.58626 5.330722,4.101776 2.53582,0.469653 1.548923,4.83949 2.295781,5.056341 2.18374,-0.293872 3.495606,2.406312 5.748369,1.877697 1.548174,1.106719 5.201016,2.424248 3.012758,5.285978 -2.440551,3.410897 -1.047901,9.209441 -3.396029,12.422151 -3.021699,0.133784 -3.424937,2.669831 -4.228005,5.782976 -0.286123,2.05516 -1.95424,5.85198 -3.841268,3.9612 0.519833,0.59041 1.832239,4.05836 -0.808257,4.15547 -0.565123,1.47414 -2.640052,1.76473 -1.499783,4.31401 -1.627564,2.65637 1.301257,2.61474 -0.02531,6.01746 -0.156656,0.67529 0.323409,1.83975 -0.635862,1.39418 z m 121.927797,-11.577 c -2.34533,0.40204 -3.32721,-2.04968 -3.11681,-4.45826 -0.53454,0.15769 -1.96635,0.0521 -3.19707,-1.9428 -3.38794,-0.1272 -6.69295,2.97952 -9.91766,2.53341 0.46394,-3.56952 -0.15604,-7.551748 1.04169,-10.841877 1.87321,-1.757615 4.91857,-1.326719 5.69037,-4.615347 1.5035,-0.35562 2.49868,-4.178903 4.34956,-1.207884 0.11802,-2.311499 2.65675,-3.441195 4.5145,-2.88772 -1.53662,2.535814 1.83849,6.686354 2.81744,3.115312 0.65366,-3.552214 1.35748,-3.887986 2.40643,-0.151916 0.16208,2.720695 1.20053,5.048147 2.61385,6.789508 1.36845,1.874141 0.13513,5.266614 -0.68101,7.365774 -1.98762,2.44932 -3.75578,5.49313 -6.52129,6.3018 z m -71.97584,-3.89018 c -2.496686,0.97274 -1.500431,-3.98449 -3.162987,-5.22099 -0.940319,-2.584083 -0.60498,-5.876632 -2.070625,-8.334895 -1.819314,-2.875164 1.525243,-5.406283 0.420585,-8.442559 -0.20397,-2.721364 -1.419625,-5.117868 -2.736303,-7.179907 1.056348,-2.432412 0.275402,-5.4269 -1.87093,-5.265706 -1.829767,-2.830278 -4.884671,-0.130352 -7.195754,0.23261 -3.055909,0.947301 -4.395943,-3.676105 -6.112168,-5.989128 -2.066389,-2.230168 0.69982,-5.75231 -0.423969,-8.555356 0.24345,-3.619718 3.363948,-5.571566 4.349699,-8.527404 0.844906,-2.711191 2.988844,-4.299832 5.243352,-3.991678 2.362275,-0.375734 4.701438,-0.9862 7.07161,-1.271668 -1.243156,3.927627 2.330895,4.131503 4.25103,5.623304 1.852148,-0.306658 1.739291,-3.046009 4.32278,-0.78767 2.12776,0.0014 5.599693,1.780225 6.054087,-2.228585 0.869137,-3.777946 -3.473565,-0.73442 -4.806529,-2.666985 -0.357161,-1.882105 -2.014194,-4.644005 -2.45714,-1.840422 0.649116,4.074179 -3.043888,0.244053 -2.583228,-2.211121 -0.84947,-0.310141 -4.561304,-4.903247 -3.624237,-2.032784 0.983391,1.72176 4.300693,3.06952 2.175425,4.224366 -1.060577,2.541957 -2.303298,1.501819 -0.509241,-0.156238 -0.991859,-1.903215 -3.073991,-2.562438 -3.918737,-4.069045 -0.870028,1.683244 -2.742273,-0.04664 -3.551554,2.488754 -1.699227,0.826728 -1.830276,5.108341 -4.441103,4.048659 -2.721319,0.566478 -2.463921,-4.160441 -1.467224,-6.164977 1.662201,0.477117 4.980581,1.31394 3.414797,-2.122151 -1.181627,-1.560836 0.199472,-1.217588 0.175886,-2.719519 2.533335,0.472667 3.170657,-3.286554 5.22662,-3.451959 1.888249,-2.212992 5.56393,1.086611 7.090352,-1.948359 0.956306,-0.770633 0.746065,-2.816331 2.401125,-2.623905 1.902118,-1.533562 -4.364204,-0.229187 -1.757446,-3.25747 0.487172,-2.793099 -3.797504,0.994836 -2.157507,3.167414 -0.553823,3.168282 -3.05426,3.788185 -3.884403,0.920371 -2.116318,-0.400972 -3.696772,-1.413913 -1.256393,-3.233969 1.476776,-2.586709 3.902567,-4.388772 5.938653,-6.426782 3.029504,0.09281 6.012321,0.511145 8.837793,2.026611 0.09836,2.497615 -5.116881,-0.23751 -1.512203,3.023381 1.794124,0.16583 3.373173,-2.950727 5.456172,-3.214761 2.122661,0.921211 3.894226,-1.977538 5.665596,-0.03695 2.680114,1.348511 2.64109,-0.561332 1.45484,-2.694227 2.104007,-3.163642 2.563849,4.475719 3.839809,3.264349 -0.74306,-3.694822 -1.15568,-3.30797 1.17771,-1.342288 -1.28549,-4.05734 2.65204,-3.002528 4.4313,-3.849411 2.06374,-2.510681 5.24589,-0.491644 7.81983,-0.93593 0.0593,1.890619 -0.51229,3.011761 3.01586,2.421272 2.90069,-0.132717 5.71906,0.208052 8.49835,1.131236 2.53372,1.7441 3.68812,-2.876265 5.79056,-0.256826 4.32441,0.364217 8.76314,0.494479 12.92235,2.141818 1.3326,-2.32221 4.27966,0.0406 6.1964,0.175443 1.92215,0.994967 4.28223,-0.218094 5.76865,2.338178 -1.53398,-0.468291 -6.58364,-0.981569 -3.22656,1.14159 2.32446,0.310501 -3.04828,4.55414 -2.10179,2.210325 -2.53675,0.506101 -1.67629,2.230263 -0.22534,3.476547 0.6677,2.472886 0.38125,6.83804 -1.73116,2.915712 -0.80557,-1.789019 -3.27563,-3.713155 -1.52064,-5.827124 0.40422,-2.282167 -3.40903,-1.72586 -3.52955,0.365983 -0.92755,2.001009 -4.29706,-1.167883 -5.6729,0.884803 -1.85716,1.635562 -0.63982,5.096661 1.60875,3.933696 2.36344,-0.210266 3.68561,3.57637 3.24553,6.314887 -0.30268,3.281981 -2.8216,1.711602 -3.18581,4.36662 -0.35196,2.481376 4.53222,4.393068 0.86883,5.915005 -1.01824,-1.23999 -1.78045,-3.452825 -3.13535,-4.877829 -1.12953,1.118153 -2.75024,-2.736226 -3.52875,2.035416 3.00139,-0.07185 2.14527,0.455054 2.558,3.231977 2.04141,1.959828 3.32312,6.129826 0.88406,8.408371 -2.05513,1.134259 -3.44352,2.889735 -4.57532,5.540832 1.11094,-3.894803 -2.72159,-4.36459 -2.42193,-0.905418 1.51618,1.99369 4.26187,5.180215 1.79627,7.656142 -1.96788,3.759071 -3.10168,-2.988269 -4.90563,-2.051326 0.49082,4.788285 -1.26998,2.843702 -0.988,-0.851877 -0.064,-3.514722 -2.1685,-0.409174 -2.44633,-3.968307 -1.15423,-1.849395 -2.9391,-5.416451 -4.78402,-2.661565 -1.5106,1.949981 -3.86541,3.068147 -3.96143,6.20504 1.40484,2.599346 -1.73848,7.390727 -2.40807,2.854244 -0.80673,-2.951652 -2.3037,-5.906592 -2.13225,-8.933357 -1.47691,0.32058 -3.0735,-1.654418 -4.44911,-3.670422 -2.36498,-0.270632 -4.97604,0.436779 -6.78264,-2.052957 -1.69026,1.6145 -4.466136,-3.920209 -4.366491,-1.648231 0.278329,2.54302 2.0036,6.562656 3.940051,3.40643 0.48218,-2.347983 3.74766,3.314141 2.46988,4.100031 -1.51271,3.086314 -3.794508,4.854112 -6.366715,6.124082 -2.218255,2.341617 -3.174495,-1.310424 -3.627253,-3.567473 -1.891536,-2.834409 -2.73573,-6.126946 -4.465636,-9.095194 -3.027743,-1.300344 0.85456,3.816306 0.818933,5.687778 0.58084,3.843298 3.889971,5.622708 4.260728,9.517555 1.532764,1.082033 5.58532,-1.979958 4.993089,0.654784 -1.231173,5.368385 -5.144388,8.856344 -7.444493,13.497733 0.587385,3.468092 2.28108,8.343733 -0.72639,10.592561 -2.836305,1.446496 -0.381168,5.790483 -2.910964,7.17548 -1.312577,3.887815 -3.976896,7.297305 -7.335139,7.721305 z m 14.929207,-8.028754 c -2.483467,0.775722 -1.397243,-3.866467 -0.698467,-5.160657 -0.937083,-3.263131 2.60687,-3.899242 3.386682,-5.464146 0.940833,3.442965 -1.666683,7.133588 -1.79702,10.296204 -0.297062,0.109529 -0.594133,0.219066 -0.891195,0.328599 z M 159.96134,85.684127 c -2.12321,-0.674374 -3.16206,-3.082418 -5.50552,-1.892221 -2.23682,-0.374444 -1.31596,-4.197292 -4.05923,-3.986192 -1.37252,-0.496556 -2.55587,-4.88829 -0.25814,-2.38694 0.5711,4.151958 2.18741,-1.021733 3.85839,1.02384 1.55692,0.916343 4.79296,1.682256 4.2955,4.366932 0.19341,0.69062 4.00667,3.477278 1.669,2.874581 z m -28.1606,-4.075365 c -2.20319,-2.377307 -3.31532,-6.637494 -5.30712,-9.586073 0.95513,-1.216554 2.48387,2.956929 3.86463,2.93157 0.48676,1.867209 4.29301,5.67302 1.44249,6.654503 z m 6.69736,-2.418384 c -2.07047,0.654361 -4.21298,-1.118909 -3.45645,-4.099282 1.64935,-0.187334 2.46856,-3.421167 4.25663,-4.605896 1.87452,0.729132 1.02043,4.930261 0.45218,6.736604 -0.59278,0.430157 -0.58645,1.851009 -1.25236,1.968574 z M 16.166015,69.300507 C 13.769401,69.023708 13.489111,65.865892 11.935863,64.104278 9.840222,64.630708 8.7758246,61.216447 6.5775087,62.31842 4.975882,61.617863 1.9470596,60.353924 2.1849175,57.665144 c -0.7039422,-2.95599 -2.56671893,-5.457397 -3.12086511,-8.615986 -1.92443329,-0.932447 1.46678116,5.990445 0.05381,5.385704 C -2.2570728,52.447664 -2.0757011,49.219083 -2.777417,47.154766 -4.4993679,46.01146 -5.0211707,42.120505 -3.9894698,40.143414 -2.6077394,37.959762 -1.2085448,35.59131 -0.52307634,33.215841 -1.0925344,30.54996 0.3640408,26.31212 -2.0729379,25.095229 -4.0117787,23.445615 -7.3087756,24.9395 -8.3087919,24.543013 c -1.3911008,1.2587 -3.6255081,2.621177 -4.2831171,0.641802 -2.168561,-2.214625 1.814055,-3.340415 3.0746875,-3.557581 0.5968843,-0.160994 -3.0174475,-2.513255 0.8462109,-1.894547 0.4987088,-1.408849 3.0125106,-2.955408 5.4982064,-2.987042 2.21513933,-0.05713 4.7671382,-1.359623 6.78776,-0.309183 1.2143077,3.553434 3.7504247,0.558607 5.8695858,0.721769 2.9548994,-0.05112 6.0134774,0.110302 8.5890924,2.220383 1.27752,-2.151766 4.167032,-0.845966 5.971862,-0.350058 0.693169,-0.868894 2.999918,-5.748633 3.060239,-1.930887 0.441664,2.604451 3.285867,-0.929904 3.596455,0.821822 -1.166556,1.644404 -3.980355,2.110536 -4.571128,2.613157 -1.323108,2.037156 -4.038137,1.87249 -5.564315,3.997177 -1.040147,3.026653 2.197607,3.676524 3.899444,3.879189 -1.608837,2.974522 1.640629,3.80747 1.686179,0.675958 2.742661,-0.111997 1.504091,-3.444876 2.776301,-4.801759 1.01286,-1.953663 4.571054,-2.099764 4.262107,1.082926 1.813525,-0.242897 3.35353,-1.415254 3.223469,2.751054 2.632464,0.538522 1.05137,4.312188 -1.443269,4.319317 -1.296846,-0.08803 -6.012573,0.565817 -4.626946,1.380483 3.944959,-0.40124 -0.159807,1.460707 2.380262,1.927595 3.441479,-0.490907 -1.284168,1.312592 -2.042141,2.661575 0.139504,-2.724491 -2.494582,-1.06205 -3.955138,1.692447 -1.70678,0.09499 -3.279838,2.743249 -3.96774,4.616252 -1.42145,1.965195 -5.097486,2.545651 -4.254522,5.901607 0.819509,3.86096 -1.715862,4.054291 -1.600562,0.12593 -1.725448,-3.543393 -3.368736,1.400734 -5.169795,-0.748455 -2.187371,0.325038 -4.1346463,2.294622 -4.2207789,5.494947 -1.5611964,2.891631 1.7749869,5.97329 3.4353019,3.698686 0.696057,-3.500277 3.603692,-1.803256 1.819115,1.153922 -1.482962,2.89872 3.731337,0.264253 2.075832,4.452695 -1.00688,2.454526 1.653134,3.335461 1.322158,4.506313 z M 45.93573,24.253717 c -1.724893,-0.406455 -4.056918,-5.938877 -1.791197,-6.331399 2.294917,0.154762 0.535558,-4.184823 -0.58008,-5.091539 -2.071473,-1.11062 -4.420567,-2.763821 -0.606145,-1.930858 2.537445,-3.0277709 -2.941685,-0.12533 -4.159582,-0.08623 -2.099589,0.687723 -3.87539,2.784813 -6.043731,1.021155 -2.581107,-2.4772223 2.324843,-2.4434902 3.675856,-2.8052743 3.435556,-2.5375484 7.605958,-0.6821106 11.391872,-1.0395499 4.198923,-0.2079598 8.369171,1.1534518 12.520804,0.022692 3.916199,0.622499 0.05415,2.8660292 -0.463136,4.9992312 -3.031715,-0.677025 -1.479715,4.187696 -3.898899,4.334533 -2.111556,0.356928 -4.204229,0.760165 -5.847671,2.510798 -2.296806,-0.325509 -2.565325,3.325485 -4.198091,4.396438 z M 35.901373,23.113309 c -2.744096,-0.384583 -3.642266,-2.630307 -1.286499,-3.945967 0.301241,-2.754555 -2.560476,-3.70613 -3.789443,-2.672301 -2.630936,-0.566793 1.342549,-3.44641 3.172138,-2.141366 2.123575,0.383674 3.233754,1.457635 3.835882,3.941082 -0.609889,1.512209 -0.43746,3.15795 -1.680541,3.375042 -0.07563,0.573603 0.847131,1.935043 -0.251537,1.44351 z M 18.529686,17.611493 c -2.340794,0.620274 -1.985025,-2.448459 -4.223546,-2.565051 1.522002,-2.786211 3.894353,-0.746093 5.549957,0.251642 2.139445,-1.61877 4.460296,0.481851 1.790139,2.068878 -0.950629,0.577178 -2.178258,-0.314663 -3.11655,0.244531 z"
       id="path3797" />
  </g>
</svg>
